# xmcd CD database file
#
# Track frame offsets:
#	150
#	19957
#	47442
#	89232
#	119542
#	142895
#	172280
#	195417
#	217420
#	243085
#	276195
#	297415
#
# Disc length: 4211 seconds
#
# Revision: 0
# Processed by: cddbd v1.5.2PL0 Copyright (c) Steve Scherf et al.
# Submitted via: CDex 1.51
#
DISCID=bf10710c
DTITLE=Various Artist - Tonight @ Mezzo - Tonight @ Mezzo, Twelve Contemporary Jazz Grooves
DYEAR=1900
DGENRE=Jazz
TTITLE0=Sambada - Street Walk
TTITLE1=Four 80 East - Speak Easy
TTITLE2=Louis Borenius Coup d'Etat - Smetana
TTITLE3=Street Jazz Unit - What's the best thing to do tomorrow
TTITLE4=Paolo Achenza Trio - Samba Royale
TTITLE5=Fishbelly Black - The Crusader
TTITLE6=Yada Yada - Take One
TTITLE7=Mr Gone - Equation: boogie
TTITLE8=Neos - Original Untitled
TTITLE9=Diamond Wookie - Chads Valley
TTITLE10=Ed Bentley - Magic Night
TTITLE11=Three Deuces - Keep on it (edit)
EXTD=
EXTT0=
EXTT1=
EXTT2=
EXTT3=
EXTT4=
EXTT5=
EXTT6=
EXTT7=
EXTT8=
EXTT9=
EXTT10=
EXTT11=
PLAYORDER=
